# xmcd
#
# Track frame offsets: 
#        150
#        28381
#        48834
#        73521
#        105855
#        148723
#        168205
#        197439
#        218537
#        258864
#
# Disc length: 3915 seconds
#
# Revision: 0
# Processed by: cddbd v1.5.2PL0 Copyright (c) Steve Scherf et al.
# Submitted via: ExactAudioCopy v0.95b3
#
DISCID=7f0f490a
DTITLE=Acdc  - Columbus - Veterans Memorial - 09-10-78 - 320K
DYEAR=1900
DGENRE=
TTITLE0=Live Wire
TTITLE1=Problem Child
TTITLE2=Sin City
TTITLE3=Gone Shooting
TTITLE4=Bad Boy Boogie
TTITLE5=Rock n Roll damnation
TTITLE6=The Jack
TTITLE7=Dog Eat Dog
TTITLE8=Rocker
TTITLE9=Let There Be Rock
EXTD=
EXTT0=
EXTT1=
EXTT2=
EXTT3=
EXTT4=
EXTT5=
EXTT6=
EXTT7=
EXTT8=
EXTT9=
PLAYORDER=
